<?xml version="1.0" encoding="utf-8"?>
<!-- Svg Vector Icons : http://www.onlinewebfonts.com/icon -->
<!DOCTYPE svg PUBLIC "-//W3C//DTD SVG 1.1//EN" "http://www.w3.org/Graphics/SVG/1.1/DTD/svg11.dtd">
<svg version="1.1" xmlns="http://www.w3.org/2000/svg" xmlns:xlink="http://www.w3.org/1999/xlink" x="0px" y="0px" viewBox="0 0 1000 1000" enable-background="new 0 0 1000 1000" xml:space="preserve">
<metadata> Svg Vector Icons : http://www.onlinewebfonts.com/icon </metadata>
<g><g transform="translate(0.000000,511.000000) scale(0.100000,-0.100000)"><path d="M2900.8,3946.4L2684.5,2861l343.8-347.6c490.5-494.4,950.2-969.5,952.1-981.1c0-5.8-96.6-106.2-212.4-222.1l-212.4-212.4l-656.6,656.6L2242.3,2411l-1056.4-210.5c-583.2-115.9-1069.9-216.3-1085.3-224C67.7,1959.1,1467.9,557.1,1691.9,383.3c411.3-318.7,764.8-450,1156.8-428.7c220.2,11.6,368.9,54.1,540.7,158.4c59.9,34.8,108.2,61.8,108.2,59.9c0-3.9-23.2-48.3-52.1-100.4c-48.3-85-54.1-113.9-54.1-278.1c0-162.2,5.8-195.1,52.1-280c36.7-69.5,415.2-459.6,1394.3-1438.8L6182-3266.7l1091.1,1091.1l1091.1,1091.2L7027.9,253.9c-1506.4,1506.3-1450.3,1458.1-1720.7,1460c-115.9,0-158.4-9.7-254.9-56c-63.7-30.9-123.6-59.9-135.2-63.7c-9.7-5.8-5.8,7.7,11.6,27c56,63.7,152.6,274.2,185.4,399.8c42.5,168,38.6,448-11.6,639.2c-50.2,189.3-177.7,448-324.4,654.7c-73.4,106.2-370.8,419.1-886.4,938.6l-774.4,778.3L2900.8,3946.4z"/><path d="M7707.6-2612.1L6616.5-3703.2l309-303.2c237.5-231.8,345.7-322.5,459.6-388.2c231.7-131.3,426.8-208.6,708.8-280c417.1-106.2,687.5-135.2,1268.8-137.1c278.1,0,511.8,7.7,521.4,15.4c25.1,27.1,19.3,1044.8-9.7,1259.2c-79.2,594.8-256.8,1100.8-506,1423.3c-50.2,67.6-200.8,227.9-332.2,357.3L8798.8-1519L7707.6-2612.1z"/></g></g>
</svg>